<?xml version="1.0" encoding="UTF-8"?>
<svg xmlns="http://www.w3.org/2000/svg" viewBox="0 0 1500 1100" font-family="'Segoe UI', system-ui, sans-serif">
  <style><![CDATA[
    .title { font-size: 30px; font-weight: 700; fill: #0f172a; }
    .subtitle { font-size: 15px; fill: #475569; }
    .caption { font-size: 12px; fill: #64748b; font-style: italic; }
    .layer-label { font-size: 14px; font-weight: 700; fill: #0f172a; letter-spacing: 0.3px; }
    .box-label { font-size: 13px; font-weight: 600; fill: #0f172a; }
    .file-label { font-size: 12px; font-family: 'Consolas', 'JetBrains Mono', monospace; fill: #1e293b; }
    .arrow-label { font-size: 11px; fill: #475569; font-style: italic; }
    .legend-text { font-size: 12px; fill: #1e293b; }
    .badge { font-size: 10px; font-weight: 700; fill: white; letter-spacing: 0.5px; }

    .box { stroke-width: 2; }
    .box-user      { fill: #fce7f3; stroke: #db2777; }
    .box-ui        { fill: #dbeafe; stroke: #2563eb; }
    .box-ui-sub    { fill: #eff6ff; stroke: #60a5fa; }
    .box-core      { fill: #d1fae5; stroke: #059669; }
    .box-core-sub  { fill: #ecfdf5; stroke: #34d399; }
    .box-subproc   { fill: #fed7aa; stroke: #ea580c; }
    .box-external  { fill: #ede9fe; stroke: #7c3aed; }
    .box-fs        { fill: #f1f5f9; stroke: #475569; stroke-dasharray: 4,2; }
    .box-test      { fill: #fef3c7; stroke: #d97706; }

    .arrow         { stroke: #475569; stroke-width: 1.8; fill: none; }
    .arrow-dashed  { stroke-dasharray: 6,4; }
    .arrow-thick   { stroke-width: 2.4; }
  ]]></style>

  <defs>
    <marker id="arr" viewBox="0 0 10 10" refX="9" refY="5"
            markerWidth="6" markerHeight="6" orient="auto-start-reverse">
      <path d="M 0 0 L 10 5 L 0 10 z" fill="#475569"/>
    </marker>
    <filter id="soft" x="-5%" y="-5%" width="110%" height="115%">
      <feGaussianBlur in="SourceAlpha" stdDeviation="2"/>
      <feOffset dx="0" dy="2" result="off"/>
      <feComponentTransfer><feFuncA type="linear" slope="0.18"/></feComponentTransfer>
      <feMerge><feMergeNode/><feMergeNode in="SourceGraphic"/></feMerge>
    </filter>
  </defs>

  <!-- Background -->
  <rect width="1500" height="1100" fill="#fafafa"/>

  <!-- Title -->
  <text x="750" y="48" text-anchor="middle" class="title">Whisper Project — System Architecture</text>
  <text x="750" y="72" text-anchor="middle" class="subtitle">
    Offline transcription (faster-whisper) + media downloader (yt-dlp) — Tkinter desktop, Windows-first
  </text>
  <text x="750" y="92" text-anchor="middle" class="caption">
    v0.4 after Session 5 — Phase 1b (split) + Phase 2a (Whisper) + Phase 3a (yt-dlp) + PyInstaller build
  </text>

  <!-- ============== USER ============== -->
  <g filter="url(#soft)">
    <rect x="50" y="120" width="220" height="56" rx="10" class="box box-user"/>
    <text x="160" y="145" text-anchor="middle" class="box-label">User (Windows 10/11)</text>
    <text x="160" y="163" text-anchor="middle" class="arrow-label">paste URL, pick file, click Transcribe</text>
  </g>

  <!-- ============== TK APP layer ============== -->
  <g filter="url(#soft)">
    <rect x="50" y="210" width="700" height="430" rx="14" class="box box-ui"/>
    <text x="70" y="235" class="layer-label">app/  —  Tk main loop  (single thread)</text>

    <!-- entry + App -->
    <rect x="70" y="250" width="190" height="40" rx="6" class="box box-ui-sub"/>
    <text x="165" y="275" text-anchor="middle" class="box-label">gui.py  (11 lines)</text>

    <rect x="280" y="250" width="190" height="40" rx="6" class="box box-ui-sub"/>
    <text x="375" y="270" text-anchor="middle" class="box-label">app/app.py</text>
    <text x="375" y="285" text-anchor="middle" class="arrow-label">App class · 489 lines</text>

    <rect x="490" y="250" width="240" height="40" rx="6" class="box box-ui-sub"/>
    <text x="610" y="270" text-anchor="middle" class="box-label">app/observability.py</text>
    <text x="610" y="285" text-anchor="middle" class="arrow-label">Sentry (opt-in via SENTRY_DSN)</text>

    <!-- Tabs -->
    <text x="70" y="315" class="layer-label">Tabs</text>
    <rect x="70" y="325" width="200" height="40" rx="6" class="box box-ui-sub"/>
    <text x="170" y="350" text-anchor="middle" class="box-label">Transcribe</text>
    <rect x="280" y="325" width="200" height="40" rx="6" class="box box-ui-sub"/>
    <text x="380" y="350" text-anchor="middle" class="box-label">Transcription Queue</text>
    <rect x="490" y="325" width="240" height="40" rx="6" class="box box-ui-sub"/>
    <text x="610" y="350" text-anchor="middle" class="box-label">Download Videos</text>

    <!-- Services -->
    <text x="70" y="390" class="layer-label">Services  (app/services/)</text>
    <rect x="70" y="400" width="158" height="40" rx="6" class="box box-core-sub"/>
    <text x="149" y="420" text-anchor="middle" class="box-label">transcription_service</text>
    <text x="149" y="434" text-anchor="middle" class="arrow-label">spawn workers, route events</text>

    <rect x="238" y="400" width="158" height="40" rx="6" class="box box-core-sub"/>
    <text x="317" y="420" text-anchor="middle" class="box-label">download_service</text>
    <text x="317" y="434" text-anchor="middle" class="arrow-label">build cmd, subtitle phase</text>

    <rect x="406" y="400" width="158" height="40" rx="6" class="box box-core-sub"/>
    <text x="485" y="420" text-anchor="middle" class="box-label">format_service</text>
    <text x="485" y="434" text-anchor="middle" class="arrow-label">--dump-single-json</text>

    <rect x="574" y="400" width="158" height="40" rx="6" class="box box-core-sub"/>
    <text x="653" y="420" text-anchor="middle" class="box-label">integrations_service</text>
    <text x="653" y="434" text-anchor="middle" class="arrow-label">.otr export/import</text>

    <!-- Domain / Widgets / Dialogs -->
    <text x="70" y="465" class="layer-label">Domain · Widgets · Dialogs</text>
    <rect x="70" y="475" width="200" height="40" rx="6" class="box box-ui-sub"/>
    <text x="170" y="495" text-anchor="middle" class="box-label">domain/</text>
    <text x="170" y="509" text-anchor="middle" class="arrow-label">tasks · languages</text>

    <rect x="280" y="475" width="200" height="40" rx="6" class="box box-ui-sub"/>
    <text x="380" y="495" text-anchor="middle" class="box-label">widgets/</text>
    <text x="380" y="509" text-anchor="middle" class="arrow-label">console · tabs · platform</text>

    <rect x="490" y="475" width="240" height="40" rx="6" class="box box-ui-sub"/>
    <text x="610" y="495" text-anchor="middle" class="box-label">dialogs/</text>
    <text x="610" y="509" text-anchor="middle" class="arrow-label">model_download · advanced · statistics</text>

    <!-- Event queues -->
    <text x="70" y="540" class="layer-label">Event queues  (Tk-main polls every 100–300 ms)</text>
    <rect x="70" y="550" width="200" height="32" rx="6" class="box box-core-sub"/>
    <text x="170" y="571" text-anchor="middle" class="file-label">worker_events</text>

    <rect x="280" y="550" width="200" height="32" rx="6" class="box box-core-sub"/>
    <text x="380" y="571" text-anchor="middle" class="file-label">format_events</text>

    <rect x="490" y="550" width="240" height="32" rx="6" class="box box-core-sub"/>
    <text x="610" y="571" text-anchor="middle" class="file-label">download_events</text>

    <text x="70" y="610" class="arrow-label">Tk is single-threaded — only the polling methods touch widgets.</text>
    <text x="70" y="625" class="arrow-label">Workers and subprocess readers only push events to queues.</text>
  </g>

  <!-- ============== TRANSCRIPTION WORKERS ============== -->
  <g filter="url(#soft)">
    <rect x="780" y="210" width="320" height="230" rx="14" class="box box-subproc"/>
    <text x="800" y="235" class="layer-label">Transcription workers  ×N</text>
    <text x="800" y="252" class="arrow-label">spawn = python -u -m core.worker</text>

    <rect x="800" y="265" width="280" height="40" rx="6" class="box box-subproc"/>
    <text x="940" y="285" text-anchor="middle" class="box-label">core/worker.py</text>
    <text x="940" y="299" text-anchor="middle" class="arrow-label">JSON stdio loop · one job at a time</text>

    <rect x="800" y="315" width="280" height="40" rx="6" class="box box-subproc"/>
    <text x="940" y="335" text-anchor="middle" class="box-label">core/transcriber.py</text>
    <text x="940" y="349" text-anchor="middle" class="arrow-label">VAD · word timestamps · batched</text>

    <rect x="800" y="365" width="280" height="40" rx="6" class="box box-subproc"/>
    <text x="940" y="385" text-anchor="middle" class="box-label">faster-whisper · CTranslate2</text>
    <text x="940" y="399" text-anchor="middle" class="arrow-label">CUDA fp16 or CPU int8 (auto-detect)</text>

    <text x="800" y="425" class="arrow-label">Holds model in memory across jobs (~3 GB)</text>
  </g>

  <!-- ============== EXTERNAL PROCESSES ============== -->
  <g filter="url(#soft)">
    <rect x="1130" y="210" width="320" height="230" rx="14" class="box box-external"/>
    <text x="1150" y="235" class="layer-label">External processes  (bin/)</text>
    <text x="1150" y="252" class="arrow-label">vendored binaries · CREATE_NO_WINDOW</text>

    <rect x="1150" y="265" width="280" height="40" rx="6" class="box box-external"/>
    <text x="1290" y="285" text-anchor="middle" class="box-label">bin/yt-dlp.exe</text>
    <text x="1290" y="299" text-anchor="middle" class="arrow-label">one process per download · --newline</text>

    <rect x="1150" y="315" width="280" height="40" rx="6" class="box box-external"/>
    <text x="1290" y="335" text-anchor="middle" class="box-label">bin/ffmpeg.exe</text>
    <text x="1290" y="349" text-anchor="middle" class="arrow-label">merge audio+video, post-process</text>

    <rect x="1150" y="365" width="280" height="40" rx="6" class="box box-external"/>
    <text x="1290" y="385" text-anchor="middle" class="box-label">bin/ffprobe.exe</text>
    <text x="1290" y="399" text-anchor="middle" class="arrow-label">duration probe (resolved via bundled_binary)</text>
  </g>

  <!-- ============== CORE library layer ============== -->
  <g filter="url(#soft)">
    <rect x="50" y="660" width="700" height="240" rx="14" class="box box-core"/>
    <text x="70" y="685" class="layer-label">core/  —  pure Python modules  (testable, no Tk)</text>

    <rect x="70" y="700" width="158" height="42" rx="6" class="box box-core-sub"/>
    <text x="149" y="720" text-anchor="middle" class="box-label">config.py</text>
    <text x="149" y="734" text-anchor="middle" class="arrow-label">atomic save · drive fallback</text>

    <rect x="238" y="700" width="158" height="42" rx="6" class="box box-core-sub"/>
    <text x="317" y="720" text-anchor="middle" class="box-label">model_manager.py</text>
    <text x="317" y="734" text-anchor="middle" class="arrow-label">resumable ZIP · MD5</text>

    <rect x="406" y="700" width="158" height="42" rx="6" class="box box-core-sub"/>
    <text x="485" y="720" text-anchor="middle" class="box-label">history.py</text>
    <text x="485" y="734" text-anchor="middle" class="arrow-label">SQLite · restore on launch</text>

    <rect x="574" y="700" width="158" height="42" rx="6" class="box box-core-sub"/>
    <text x="653" y="720" text-anchor="middle" class="box-label">logging_setup.py</text>
    <text x="653" y="734" text-anchor="middle" class="arrow-label">RotatingFileHandler 5MB×3</text>

    <rect x="70" y="752" width="326" height="42" rx="6" class="box box-core-sub"/>
    <text x="233" y="772" text-anchor="middle" class="box-label">core/writers/</text>
    <text x="233" y="786" text-anchor="middle" class="arrow-label">srt · vtt · tsv · txt · json · lrc</text>

    <rect x="406" y="752" width="326" height="42" rx="6" class="box box-core-sub"/>
    <text x="569" y="772" text-anchor="middle" class="box-label">core/integrations/otranscribe.py</text>
    <text x="569" y="786" text-anchor="middle" class="arrow-label">.otr ↔ SRT bidirectional</text>

    <rect x="70" y="806" width="662" height="36" rx="6" class="box box-test"/>
    <text x="401" y="828" text-anchor="middle" class="file-label">tests/ — 137 tests, 77% coverage on core/  (pytest + responses)</text>

    <rect x="70" y="852" width="662" height="36" rx="6" class="box box-test"/>
    <text x="401" y="874" text-anchor="middle" class="file-label">whisper_project.spec · build.bat · BUILD.md — PyInstaller --onedir build pipeline</text>
  </g>

  <!-- ============== FILESYSTEM ============== -->
  <g filter="url(#soft)">
    <rect x="780" y="460" width="670" height="440" rx="14" class="box box-fs"/>
    <text x="800" y="485" class="layer-label">Filesystem state</text>

    <text x="800" y="510" class="arrow-label">%LOCALAPPDATA%\WhisperProject\  (per-user, via platformdirs)</text>
    <rect x="800" y="520" width="630" height="36" rx="6" class="box box-fs"/>
    <text x="1115" y="542" text-anchor="middle" class="file-label">config.json   theme · model_path · device · vad · output_formats · auto_transcribe</text>

    <rect x="800" y="566" width="630" height="36" rx="6" class="box box-fs"/>
    <text x="1115" y="588" text-anchor="middle" class="file-label">logs\app.log   (rotation 5 MB × 3 backups)</text>

    <rect x="800" y="612" width="630" height="36" rx="6" class="box box-fs"/>
    <text x="1115" y="634" text-anchor="middle" class="file-label">Cache\models\models--Systran--faster-whisper-large-v3   (≈ 3 GB, MD5-verified)</text>

    <rect x="800" y="658" width="630" height="36" rx="6" class="box box-fs"/>
    <text x="1115" y="680" text-anchor="middle" class="file-label">history.db   SQLite — downloads, transcriptions, restore on launch</text>

    <text x="800" y="720" class="arrow-label">User-chosen folders (next to source media)</text>
    <rect x="800" y="730" width="630" height="36" rx="6" class="box box-fs"/>
    <text x="1115" y="752" text-anchor="middle" class="file-label">&lt;title&gt;.{srt, vtt, tsv, txt, json, lrc, otr, mp4, mp3, m4a, ...}</text>

    <text x="800" y="788" class="arrow-label">Distribution (PyInstaller --onedir output)</text>
    <rect x="800" y="798" width="630" height="36" rx="6" class="box box-fs"/>
    <text x="1115" y="820" text-anchor="middle" class="file-label">dist\WhisperProject\   WhisperProject.exe · _internal\ · bin\(ffmpeg,ffprobe,yt-dlp)</text>

    <text x="800" y="858" class="arrow-label">Quarantined / migration artifacts</text>
    <rect x="800" y="868" width="630" height="22" rx="6" class="box box-fs"/>
    <text x="1115" y="884" text-anchor="middle" class="file-label">config.json.corrupt · config.json.migrated.bak</text>
  </g>

  <!-- ============== EXTERNAL NETWORK ============== -->
  <g filter="url(#soft)">
    <rect x="50" y="920" width="1400" height="120" rx="14" class="box box-external"/>
    <text x="70" y="945" class="layer-label">External services  (network)</text>

    <rect x="70" y="960" width="320" height="60" rx="6" class="box box-external"/>
    <text x="230" y="982" text-anchor="middle" class="box-label">smch.ir/models/...zip + .md5</text>
    <text x="230" y="1000" text-anchor="middle" class="arrow-label">model ZIP, resumable Range, MD5 verify</text>
    <text x="230" y="1014" text-anchor="middle" class="arrow-label">(robust on unreliable networks)</text>

    <rect x="410" y="960" width="320" height="60" rx="6" class="box box-external"/>
    <text x="570" y="982" text-anchor="middle" class="box-label">YouTube · Vimeo · 1000+ sites</text>
    <text x="570" y="1000" text-anchor="middle" class="arrow-label">via yt-dlp · auto-subtitles · SponsorBlock</text>
    <text x="570" y="1014" text-anchor="middle" class="arrow-label">--progress-template "%(progress)j" (JSON)</text>

    <rect x="750" y="960" width="320" height="60" rx="6" class="box box-external"/>
    <text x="910" y="982" text-anchor="middle" class="box-label">otranscribe.com</text>
    <text x="910" y="1000" text-anchor="middle" class="arrow-label">Help → Open oTranscribe</text>
    <text x="910" y="1014" text-anchor="middle" class="arrow-label">user drag-drops audio + .otr round-trip</text>

    <rect x="1090" y="960" width="320" height="60" rx="6" class="box box-external"/>
    <text x="1250" y="982" text-anchor="middle" class="box-label">github.com/yt-dlp releases</text>
    <text x="1250" y="1000" text-anchor="middle" class="arrow-label">opt-in auto-update (daily, gated)</text>
    <text x="1250" y="1014" text-anchor="middle" class="arrow-label">never blocks a download</text>
  </g>

  <!-- ============== ARROWS / FLOWS ============== -->
  <g>
    <!-- User → App -->
    <path d="M 160 176 L 160 210" class="arrow arrow-thick" marker-end="url(#arr)"/>
    <text x="170" y="198" class="arrow-label">click / paste</text>

    <!-- App → transcription workers -->
    <path d="M 750 350 L 800 335" class="arrow arrow-thick" marker-end="url(#arr)"/>
    <text x="760" y="320" class="arrow-label">JSON over stdio</text>

    <!-- App → yt-dlp -->
    <path d="M 750 410 L 1150 360" class="arrow arrow-thick" marker-end="url(#arr)"/>
    <text x="930" y="380" class="arrow-label">subprocess.Popen · stdout pipe · cancel = terminate()</text>

    <!-- Worker → output files -->
    <path d="M 1080 405 Q 1200 450 1115 745" class="arrow arrow-dashed" marker-end="url(#arr)"/>
    <text x="1130" y="450" class="arrow-label">writes .srt .vtt .json ...</text>

    <!-- yt-dlp → output files -->
    <path d="M 1290 405 Q 1330 600 1300 745" class="arrow arrow-dashed" marker-end="url(#arr)"/>
    <text x="1305" y="580" class="arrow-label">.mp4 .mp3 ... and subtitle files</text>

    <!-- Auto-transcribe-after-download (Phase 3a) -->
    <path d="M 1140 320 Q 950 215 800 280" class="arrow arrow-dashed arrow-thick" marker-end="url(#arr)" stroke="#dc2626"/>
    <text x="950" y="200" text-anchor="middle" class="arrow-label" fill="#dc2626">★ Phase 3a: auto-transcribe after download</text>

    <!-- App ↔ config -->
    <path d="M 700 295 Q 765 295 800 540" class="arrow arrow-dashed" marker-end="url(#arr)"/>

    <!-- model_manager → smch.ir -->
    <path d="M 317 742 Q 280 850 230 960" class="arrow arrow-dashed" marker-end="url(#arr)"/>
    <text x="220" y="900" class="arrow-label">resumable ZIP fetch</text>

    <!-- yt-dlp → YouTube -->
    <path d="M 1290 405 Q 800 750 570 960" class="arrow arrow-dashed" marker-end="url(#arr)"/>

    <!-- history.py → history.db -->
    <path d="M 485 742 Q 700 700 800 676" class="arrow arrow-dashed" marker-end="url(#arr)"/>

    <!-- integrations → otranscribe.com -->
    <path d="M 569 794 Q 700 880 910 960" class="arrow arrow-dashed" marker-end="url(#arr)"/>
  </g>

  <!-- ============== LEGEND ============== -->
  <g>
    <rect x="50" y="1055" width="1400" height="36" fill="white" stroke="#cbd5e1" rx="6"/>

    <rect x="62" y="1063" width="20" height="14" rx="3" class="box box-user"/>
    <text x="88" y="1075" class="legend-text">User</text>

    <rect x="135" y="1063" width="20" height="14" rx="3" class="box box-ui"/>
    <text x="161" y="1075" class="legend-text">UI (Tk widgets)</text>

    <rect x="265" y="1063" width="20" height="14" rx="3" class="box box-core"/>
    <text x="291" y="1075" class="legend-text">core/ pure Python</text>

    <rect x="410" y="1063" width="20" height="14" rx="3" class="box box-subproc"/>
    <text x="436" y="1075" class="legend-text">Transcription subprocess workers</text>

    <rect x="640" y="1063" width="20" height="14" rx="3" class="box box-external"/>
    <text x="666" y="1075" class="legend-text">External processes / network</text>

    <rect x="855" y="1063" width="20" height="14" rx="3" class="box box-fs"/>
    <text x="881" y="1075" class="legend-text">Filesystem state</text>

    <rect x="985" y="1063" width="20" height="14" rx="3" class="box box-test"/>
    <text x="1011" y="1075" class="legend-text">Test / build artifact</text>

    <line x1="1120" y1="1070" x2="1148" y2="1070" class="arrow" marker-end="url(#arr)"/>
    <text x="1156" y="1075" class="legend-text">sync call</text>

    <line x1="1220" y1="1070" x2="1248" y2="1070" class="arrow arrow-dashed" marker-end="url(#arr)"/>
    <text x="1256" y="1075" class="legend-text">async / event / file write</text>

    <line x1="1378" y1="1070" x2="1406" y2="1070" class="arrow arrow-thick" marker-end="url(#arr)" stroke="#dc2626"/>
    <text x="1414" y="1075" class="legend-text" fill="#dc2626">killer flow</text>
  </g>
</svg>
